<svg width="50.026" height="51.329" version="1.1" viewBox="0 0 50.026 51.329" xmlns="http://www.w3.org/2000/svg">
 <path d="m24.471 18.093c0.27091-0.36121 0.81272-0.36121 1.0836 0l0.78524-0.58893-0.78524 0.58893 23.377 31.17c0.3348 0.44651 0.01629 1.0836-0.54181 1.0836h-46.755c-0.5581 0-0.87667-0.63712-0.54181-1.0836zm2.6541 4.6719c-1.0561-1.4081-3.1684-1.4081-4.2246 0l-16.375 21.834c-1.3055 1.7406-0.063496 4.2246 2.1123 4.2246h32.75c2.1758 0 3.4177-2.484 2.1123-4.2246z" fill="#333a56" stroke="#333a56" stroke-width="1.9631"/>
 <path d="m26.653 4.7236c-1.0311-1.0311-2.7029-1.0311-3.734 0l-14.32 14.32c-1.0311 1.0311-1.0311 2.7029 0 3.734l14.32 14.32c1.0311 1.0311 2.7029 1.0311 3.734 0l14.32-14.32c1.0311-1.0311 1.0311-2.7029 0-3.734zm-21.604 16.666c-0.26449-0.26443-0.26449-0.69327 0-0.95779l19.258-19.258c0.26453-0.26449 0.69336-0.26449 0.95779 0l19.258 19.258c0.26443 0.26453 0.26443 0.69336 0 0.95779l-19.258 19.258c-0.26443 0.26443-0.69327 0.26443-0.95779 0z" fill="#333a56" stroke="#333a56" stroke-width="1.9631"/>
</svg>
