<svg width="82" height="94" viewBox="0 0 82 94" fill="none" xmlns="http://www.w3.org/2000/svg">
<path d="M39.4166 84.6997C39.4166 88.5295 31.5177 91.6412 21.8236 91.6412C12.1294 91.6412 4.23047 88.5295 4.23047 84.6997" stroke="#343A56" stroke-width="2.3" stroke-miterlimit="10"/>
<path d="M39.4166 76.561C39.4166 80.3908 31.5177 83.5025 21.8236 83.5025C12.1294 83.5025 4.23047 80.3908 4.23047 76.561" stroke="#343A56" stroke-width="2.3" stroke-miterlimit="10"/>
<path fill-rule="evenodd" clip-rule="evenodd" d="M21.7044 62.9175C31.3986 62.9175 39.2975 66.0292 39.2975 69.859C39.2975 73.6888 31.3986 76.8005 21.7044 76.8005C12.0103 76.8005 4.11133 73.6888 4.11133 69.859C4.11133 66.0292 12.0103 62.9175 21.7044 62.9175Z" stroke="#343A56" stroke-width="2.3" stroke-miterlimit="10"/>
<path d="M78.7916 85.0586C78.7916 88.8884 70.8927 92.0001 61.1986 92.0001C51.5044 92.0001 43.6055 88.8884 43.6055 85.0586" stroke="#343A56" stroke-width="2.3" stroke-miterlimit="10"/>
<path d="M78.7916 76.8003C78.7916 80.6301 70.8927 83.7418 61.1986 83.7418C51.5044 83.7418 43.6055 80.6301 43.6055 76.8003" stroke="#343A56" stroke-width="2.3" stroke-miterlimit="10"/>
<path d="M78.7916 68.6626C78.7916 72.4924 70.8927 75.6041 61.1986 75.6041C51.5044 75.6041 43.6055 72.4924 43.6055 68.6626" stroke="#343A56" stroke-width="2.3" stroke-miterlimit="10"/>
<path d="M78.7922 60.4038C78.7922 64.2336 70.8932 67.3453 61.1991 67.3453C51.3853 67.3453 43.4863 64.2336 43.4863 60.4038" stroke="#343A56" stroke-width="2.3" stroke-miterlimit="10"/>
<path fill-rule="evenodd" clip-rule="evenodd" d="M61.1986 46.8804C70.8927 46.8804 78.7916 49.9921 78.7916 53.8219C78.7916 57.6516 70.8927 60.7633 61.1986 60.7633C51.5044 60.7633 43.6055 57.6516 43.6055 53.8219C43.6055 49.9921 51.5044 46.8804 61.1986 46.8804Z" stroke="#343A56" stroke-width="2.3" stroke-miterlimit="10"/>
<path d="M1 52.1463C1 52.1463 74.7234 49.1543 74.7234 2" stroke="#343A56" stroke-width="2.3" stroke-miterlimit="10"/>
<path d="M69.0986 7.50532L74.7236 2L80.2289 7.50532" stroke="#343A56" stroke-width="2.3" stroke-miterlimit="10"/>
</svg>
