<svg width="88" height="94" viewBox="0 0 88 94" fill="none" xmlns="http://www.w3.org/2000/svg">
<path d="M39.0045 71.666L31.3174 52.3242L31.4414 52.2002L39.1285 71.542L39.0045 71.666Z" stroke="#343A56" stroke-width="2.3" stroke-miterlimit="10"/>
<path d="M46.4436 92.0003C44.4598 92.0003 42.6 90.7605 41.7321 89.0247L40.6163 86.545C38.8805 87.1649 37.0207 86.297 36.4007 84.6852L35.4089 82.4534C35.0369 81.5855 35.0369 80.5936 35.2849 79.7257C35.5328 78.9818 36.1528 78.3619 36.7727 77.8659L35.2849 74.6423C33.5491 75.2622 31.6893 74.3943 30.9454 72.7825L29.9535 70.5508C29.2096 68.9389 29.8295 66.9552 31.4413 66.0873L30.4494 63.7315H30.3254C28.5896 64.4754 26.4819 63.4836 25.8619 61.7477L24.994 59.516C24.3741 57.9042 25.118 55.9204 26.6058 55.0525L26.3579 54.5566C20.4065 54.9285 14.5792 52.5728 10.6117 47.9853C7.14005 44.0178 5.40424 39.0583 5.65221 33.8509C5.90019 28.6435 8.25592 23.808 12.0995 20.3364L12.2235 20.4604C8.37991 23.932 6.14816 28.6435 5.7762 33.8509C5.52823 39.0583 7.26403 44.0178 10.6117 47.8613C14.5792 52.3248 20.4065 54.6805 26.3579 54.3086H26.4819L26.8538 55.0525H26.7298C25.242 55.7964 24.4981 57.6562 25.118 59.268L25.9859 61.4998C26.6058 63.2356 28.5896 63.9795 30.2014 63.3596L30.4494 63.2356L31.6893 65.9633H31.5653C30.0775 66.8312 29.4575 68.691 30.0775 70.3028L31.0693 72.5345C31.8133 74.1464 33.5491 74.8903 35.1609 74.2703H35.2849L36.8967 77.8659H36.7727C36.0288 78.2379 35.5328 78.8578 35.2849 79.6017C35.0369 80.4696 35.0369 81.3375 35.4089 82.0815L36.4007 84.3132C37.1447 85.925 38.8805 86.6689 40.4923 86.049H40.6163L41.8561 88.7767C42.6 90.5125 44.4598 91.6284 46.3196 91.6284C46.9396 91.6284 47.5595 91.5044 48.1794 91.2564C50.5352 90.2645 51.775 87.4129 50.7831 84.9331L38.5085 51.7049L38.6325 51.5809L50.9071 84.8091C51.899 87.4129 50.6591 90.2645 48.1794 91.3804C47.8075 91.8764 47.1875 92.0003 46.4436 92.0003Z" stroke="#343A56" stroke-width="2.3" stroke-miterlimit="10"/>
<path d="M80.788 64.7234C79.7961 64.7234 78.9282 64.4755 78.0603 63.9795L75.7046 62.4917C74.5887 63.9795 72.605 64.3515 71.1171 63.3596L69.1333 62.1197C67.6455 61.1278 67.0256 59.1441 67.7695 57.5322L64.7938 55.6724C63.678 57.1603 61.6942 57.5322 60.2064 56.5403L58.0986 55.3005C56.6108 54.3086 55.9908 52.3248 56.7347 50.713L54.503 49.3492V49.4731C53.3871 51.085 51.2794 51.4569 49.6675 50.465L47.6838 49.1012C46.1959 48.1093 45.7 46.1255 46.5679 44.5137L46.3199 44.2657C45.824 44.6377 45.204 45.1336 44.7081 45.3816C41.4845 47.4894 37.8889 48.3573 34.4173 48.3573C27.846 48.4813 21.6467 45.2576 17.9271 39.3063C12.2238 30.1313 14.9515 17.9807 24.0024 12.2773L24.1264 12.4013C15.1994 18.1047 12.4717 30.1313 18.1751 39.1823C21.7707 45.0096 28.094 48.2333 34.4173 48.2333C37.8889 48.2333 41.4845 47.2414 44.7081 45.2576C45.328 44.8857 45.824 44.5137 46.3199 44.0178L47.0638 44.3897V44.5137C46.1959 46.0015 46.6919 47.9853 48.0557 48.8532L50.0395 50.2171C51.5273 51.2089 53.6351 50.837 54.627 49.3492L54.751 49.1012L57.2307 50.589V50.713C56.4868 52.2008 56.9827 54.1846 58.4705 55.0525L60.5783 56.2924C62.0661 57.1603 63.9259 56.7883 64.9178 55.4245V55.3005L68.2654 57.2843V57.4082C67.5215 58.8961 68.0175 60.8799 69.5053 61.7478L71.4891 62.9876C72.9769 63.8555 74.8367 63.4836 75.8286 62.1197V61.9957L78.3083 63.4836C79.0522 63.9795 79.9201 64.2275 80.788 64.2275C83.5157 64.2275 85.6235 61.9957 85.7475 59.268C85.7475 57.6562 85.0036 56.1684 83.6397 55.1765L56.1148 35.9587L56.2388 35.8347L83.7637 55.4245C85.1275 56.4164 85.8715 58.0282 85.8715 59.64C85.8715 62.3677 83.6397 64.7234 80.788 64.7234Z" stroke="#343A56" stroke-width="2.3" stroke-miterlimit="10"/>
<path d="M67.5212 49.4728L51.155 38.438V38.3141C51.8989 36.9502 52.5189 35.4624 52.8908 33.9746C52.8908 33.9746 52.8908 33.9746 52.8908 33.8506C55.6185 23.5597 49.6672 12.7729 39.3763 10.0453C36.0287 9.17735 32.5571 9.17735 29.3335 10.0453H29.2095V9.92127C27.4737 6.44966 24.622 3.96994 20.9024 2.73008C17.3068 1.49022 13.4633 1.86218 9.99166 3.59798C6.64403 5.33378 4.16431 8.30945 2.92445 12.029C1.68459 15.6246 2.05655 19.5922 3.66837 23.0638C4.04033 23.8077 4.53627 24.6756 5.03222 25.2955L4.90823 25.4195C4.41229 24.6756 3.91634 23.9317 3.54438 23.1878C1.80858 19.7162 1.56061 15.7486 2.67648 12.029C3.91634 8.30945 6.39606 5.33378 9.86767 3.59798C13.3393 1.86218 17.1828 1.49022 20.9024 2.73008C24.498 3.96994 27.4737 6.44966 29.2095 9.92127C32.5571 9.05337 36.0287 9.05337 39.2524 9.92127C49.5432 12.7729 55.7425 23.5597 52.8908 33.9746C52.6428 35.5864 52.1469 36.9502 51.403 38.3141L67.5212 49.2248V49.4728Z" stroke="#343A56" stroke-width="2.3" stroke-miterlimit="10"/>
<path d="M26.9775 26.4117C26.9775 26.2877 26.9775 26.2877 26.9775 26.4117C30.5731 22.5681 31.689 17.1128 30.0772 12.1533" stroke="#343A56" stroke-width="2.3" stroke-miterlimit="10"/>
<path d="M28.5898 31.8667C27.102 31.8667 25.7381 31.2468 24.6223 30.2549C22.3905 28.0231 22.3905 24.4276 24.4983 22.1958C25.3662 21.3279 26.606 20.708 27.8459 20.584V20.832C26.606 20.9559 25.4902 21.5759 24.6223 22.4438C22.5145 24.5515 22.6385 28.0231 24.7462 30.1309C25.7381 31.1228 27.102 31.7427 28.5898 31.7427C30.0776 31.7427 31.4415 31.1228 32.4334 30.1309C33.4253 29.139 34.0452 27.6512 33.9212 26.2873C33.9212 24.7995 33.3013 23.4357 32.3094 22.4438L32.4334 22.3198C34.6651 24.5515 34.6651 28.1471 32.5574 30.3789C31.5655 31.2468 30.2016 31.8667 28.5898 31.8667ZM28.5898 31.8667C28.7138 31.8667 28.7138 31.8667 28.5898 31.8667Z" stroke="#343A56" stroke-width="2.3" stroke-miterlimit="10"/>
</svg>
