<svg width="201" height="196" viewBox="0 0 201 196" fill="none" xmlns="http://www.w3.org/2000/svg">
<g opacity="0.69">
<path fill-rule="evenodd" clip-rule="evenodd" d="M104.5 67.1825C102.5 64.5158 98.5 64.5158 96.5 67.1825L6 187.849C3.52786 191.145 5.87977 195.849 10 195.849H191C195.12 195.849 197.472 191.145 195 187.849L104.5 67.1825ZM104.5 89.2054C102.5 86.5387 98.5 86.5387 96.5 89.2054L32.3621 174.723C29.8899 178.019 32.2419 182.723 36.3621 182.723H164.638C168.758 182.723 171.11 178.019 168.638 174.723L104.5 89.2054Z" fill="url(#paint0_linear)"/>
<path fill-rule="evenodd" clip-rule="evenodd" d="M104.5 67.1825C102.5 64.5158 98.5 64.5158 96.5 67.1825L6 187.849C3.52786 191.145 5.87977 195.849 10 195.849H191C195.12 195.849 197.472 191.145 195 187.849L104.5 67.1825ZM104.5 89.2054C102.5 86.5387 98.5 86.5387 96.5 89.2054L32.3621 174.723C29.8899 178.019 32.2419 182.723 36.3621 182.723H164.638C168.758 182.723 171.11 178.019 168.638 174.723L104.5 89.2054Z" fill="url(#paint1_linear)"/>
<path fill-rule="evenodd" clip-rule="evenodd" d="M103.184 22.1253C101.231 20.1727 98.0651 20.1727 96.1125 22.1253L40.4413 77.7965C38.4886 79.7491 38.4886 82.9149 40.4413 84.8676L96.1125 140.539C98.0651 142.491 101.231 142.491 103.184 140.539L158.855 84.8676C160.807 82.9149 160.807 79.7491 158.855 77.7965L103.184 22.1253ZM21.851 77.7965C19.8983 79.7491 19.8983 82.9149 21.851 84.8676L96.1125 159.129C98.0651 161.082 101.231 161.082 103.184 159.129L177.445 84.8676C179.398 82.9149 179.398 79.7491 177.445 77.7965L103.184 3.53498C101.231 1.58236 98.0651 1.58236 96.1125 3.53498L21.851 77.7965Z" fill="url(#paint2_linear)"/>
<path fill-rule="evenodd" clip-rule="evenodd" d="M103.184 22.1253C101.231 20.1727 98.0651 20.1727 96.1125 22.1253L40.4413 77.7965C38.4886 79.7491 38.4886 82.9149 40.4413 84.8676L96.1125 140.539C98.0651 142.491 101.231 142.491 103.184 140.539L158.855 84.8676C160.807 82.9149 160.807 79.7491 158.855 77.7965L103.184 22.1253ZM21.851 77.7965C19.8983 79.7491 19.8983 82.9149 21.851 84.8676L96.1125 159.129C98.0651 161.082 101.231 161.082 103.184 159.129L177.445 84.8676C179.398 82.9149 179.398 79.7491 177.445 77.7965L103.184 3.53498C101.231 1.58236 98.0651 1.58236 96.1125 3.53498L21.851 77.7965Z" fill="url(#paint3_linear)"/>
</g>
<g opacity="0.69">
<path fill-rule="evenodd" clip-rule="evenodd" d="M104.5 67.1825C102.5 64.5158 98.5 64.5158 96.5 67.1825L6 187.849C3.52786 191.145 5.87977 195.849 10 195.849H191C195.12 195.849 197.472 191.145 195 187.849L104.5 67.1825ZM104.5 89.2054C102.5 86.5387 98.5 86.5387 96.5 89.2054L32.3621 174.723C29.8899 178.019 32.2419 182.723 36.3621 182.723H164.638C168.758 182.723 171.11 178.019 168.638 174.723L104.5 89.2054Z" fill="url(#paint4_linear)"/>
<path fill-rule="evenodd" clip-rule="evenodd" d="M104.5 67.1825C102.5 64.5158 98.5 64.5158 96.5 67.1825L6 187.849C3.52786 191.145 5.87977 195.849 10 195.849H191C195.12 195.849 197.472 191.145 195 187.849L104.5 67.1825ZM104.5 89.2054C102.5 86.5387 98.5 86.5387 96.5 89.2054L32.3621 174.723C29.8899 178.019 32.2419 182.723 36.3621 182.723H164.638C168.758 182.723 171.11 178.019 168.638 174.723L104.5 89.2054Z" fill="url(#paint5_linear)"/>
<path fill-rule="evenodd" clip-rule="evenodd" d="M103.184 22.1253C101.231 20.1727 98.0651 20.1727 96.1125 22.1253L40.4413 77.7965C38.4886 79.7491 38.4886 82.9149 40.4413 84.8676L96.1125 140.539C98.0651 142.491 101.231 142.491 103.184 140.539L158.855 84.8676C160.807 82.9149 160.807 79.7491 158.855 77.7965L103.184 22.1253ZM21.851 77.7965C19.8983 79.7491 19.8983 82.9149 21.851 84.8676L96.1125 159.129C98.0651 161.082 101.231 161.082 103.184 159.129L177.445 84.8676C179.398 82.9149 179.398 79.7491 177.445 77.7965L103.184 3.53498C101.231 1.58236 98.0651 1.58236 96.1125 3.53498L21.851 77.7965Z" fill="url(#paint6_linear)"/>
<path fill-rule="evenodd" clip-rule="evenodd" d="M103.184 22.1253C101.231 20.1727 98.0651 20.1727 96.1125 22.1253L40.4413 77.7965C38.4886 79.7491 38.4886 82.9149 40.4413 84.8676L96.1125 140.539C98.0651 142.491 101.231 142.491 103.184 140.539L158.855 84.8676C160.807 82.9149 160.807 79.7491 158.855 77.7965L103.184 22.1253ZM21.851 77.7965C19.8983 79.7491 19.8983 82.9149 21.851 84.8676L96.1125 159.129C98.0651 161.082 101.231 161.082 103.184 159.129L177.445 84.8676C179.398 82.9149 179.398 79.7491 177.445 77.7965L103.184 3.53498C101.231 1.58236 98.0651 1.58236 96.1125 3.53498L21.851 77.7965Z" fill="url(#paint7_linear)"/>
</g>
<defs>
<linearGradient id="paint0_linear" x1="100.5" y1="61.8491" x2="100.5" y2="195.849" gradientUnits="userSpaceOnUse">
<stop offset="0.192708" stop-color="#2A3352" stop-opacity="0.88"/>
<stop offset="0.989583" stop-color="#333A56" stop-opacity="0"/>
</linearGradient>
<linearGradient id="paint1_linear" x1="100.5" y1="61.8491" x2="100.5" y2="195.849" gradientUnits="userSpaceOnUse">
<stop offset="0.9999" stop-color="#360F67"/>
<stop offset="1" stop-color="white" stop-opacity="0"/>
</linearGradient>
<linearGradient id="paint2_linear" x1="58.9817" y1="40.6657" x2="140.314" y2="121.998" gradientUnits="userSpaceOnUse">
<stop offset="0.192708" stop-color="#2A3352" stop-opacity="0.88"/>
<stop offset="0.989583" stop-color="#333A56" stop-opacity="0"/>
</linearGradient>
<linearGradient id="paint3_linear" x1="58.9817" y1="40.6657" x2="140.314" y2="121.998" gradientUnits="userSpaceOnUse">
<stop offset="0.9999" stop-color="#360F67"/>
<stop offset="1" stop-color="white" stop-opacity="0"/>
</linearGradient>
<linearGradient id="paint4_linear" x1="100.5" y1="61.8491" x2="100.5" y2="195.849" gradientUnits="userSpaceOnUse">
<stop offset="0.630208" stop-color="#262B3F" stop-opacity="0"/>
<stop offset="1" stop-color="#2C3656" stop-opacity="0.97"/>
</linearGradient>
<linearGradient id="paint5_linear" x1="100.5" y1="61.8491" x2="100.5" y2="195.849" gradientUnits="userSpaceOnUse">
<stop offset="0.140625" stop-color="#C45F5F"/>
<stop offset="0.729167" stop-color="white" stop-opacity="0"/>
</linearGradient>
<linearGradient id="paint6_linear" x1="58.9817" y1="40.6657" x2="140.314" y2="121.998" gradientUnits="userSpaceOnUse">
<stop offset="0.630208" stop-color="#262B3F" stop-opacity="0"/>
<stop offset="1" stop-color="#2C3656" stop-opacity="0.97"/>
</linearGradient>
<linearGradient id="paint7_linear" x1="58.9817" y1="40.6657" x2="140.314" y2="121.998" gradientUnits="userSpaceOnUse">
<stop offset="0.140625" stop-color="#E25959"/>
<stop offset="0.729167" stop-color="white" stop-opacity="0"/>
</linearGradient>
</defs>
</svg>
