<svg width="53" height="51" viewBox="0 0 53 51" fill="none" xmlns="http://www.w3.org/2000/svg">
<path d="M25.9069 18.1241C26.0389 17.9481 26.3029 17.9481 26.4349 18.1241L49.9458 49.472C50.1089 49.6895 49.9537 50 49.6818 50H2.66C2.38806 50 2.23284 49.6895 2.396 49.472L1.596 48.872L2.396 49.472L25.9069 18.1241ZM28.0349 22.6591C27.1029 21.4164 25.2389 21.4164 24.3069 22.6591L7.66086 44.8537C6.50885 46.3898 7.60484 48.5817 9.52486 48.5817H42.8169C44.7369 48.5817 45.8329 46.3898 44.6809 44.8537L28.0349 22.6591Z" fill="white" stroke="white" stroke-width="2"/>
<path d="M27.5957 5.07452C26.6857 4.1646 25.2105 4.1646 24.3006 5.07452L9.84294 19.5321C8.93302 20.4421 8.93302 21.9173 9.84294 22.8272L24.3006 37.2849C25.2105 38.1948 26.6857 38.1948 27.5957 37.2849L42.0533 22.8272C42.9632 21.9173 42.9632 20.4421 42.0533 19.5321L27.5957 5.07452ZM6.41611 21.413C6.28724 21.2842 6.28724 21.0752 6.41611 20.9463L25.7148 1.64769C25.8436 1.51882 26.0526 1.51882 26.1815 1.64769L45.4801 20.9463C45.609 21.0752 45.609 21.2842 45.4801 21.413L26.1815 40.7117C26.0526 40.8406 25.8436 40.8406 25.7148 40.7117L6.41611 21.413Z" fill="white" stroke="white" stroke-width="2"/>
</svg>
