<svg width="130" height="150" viewBox="0 0 130 150" fill="none" xmlns="http://www.w3.org/2000/svg">
<path d="M64.9846 0C62.2178 0 59.997 2.24045 59.997 5.03183C59.997 5.69295 60.1426 6.39079 60.3975 7.01518L48.966 13.6263C48.0195 12.3776 46.5632 11.6063 44.9614 11.6063C42.1945 11.6063 39.9737 13.8467 39.9737 16.6381C39.9737 19.1724 41.8668 21.3394 44.3789 21.6332V34.9657C42.959 35.1494 41.7212 35.9207 40.8839 37.0592L29.598 30.4848C29.8529 29.8604 29.9985 29.1993 29.9985 28.5015C29.9985 25.7101 27.7777 23.4696 25.0109 23.4696C22.244 23.4696 20.0233 25.7101 20.0233 28.5015C20.0233 29.1626 20.1689 29.8604 20.4237 30.4848L9.02868 37.1327C8.08212 35.8839 6.62589 35.1126 5.02402 35.1126C2.25717 35.1126 0.0364082 37.3531 0.0364082 40.1445C0.0364082 42.6787 1.92951 44.8457 4.44153 45.1396V58.4721C1.92951 58.7659 0.0728141 60.9329 0.0364082 63.4672C0.0364082 66.2586 2.25717 68.499 5.02402 68.499C6.58948 68.499 8.08212 67.7644 8.99227 66.4789L20.3873 73.1268C20.1325 73.7512 19.9869 74.4123 19.9869 75.1102C19.9869 75.7713 20.1325 76.4691 20.3873 77.0935L8.99227 83.7414C8.04572 82.4926 6.58948 81.7213 4.98762 81.7213C2.22076 81.7213 0 83.9618 0 86.7532C0 89.2875 1.89311 91.4545 4.40512 91.7483V105.044C1.89311 105.338 0.036406 107.505 0 110.039C0 112.831 2.22076 115.071 4.98762 115.071C6.55307 115.071 8.04572 114.336 8.95587 113.051L20.3509 119.699C20.0961 120.323 19.9505 120.984 19.9505 121.682C19.9505 124.474 22.1712 126.714 24.9381 126.714C27.7049 126.714 29.9257 124.474 29.9257 121.682C29.9257 121.021 29.7801 120.323 29.5252 119.699L40.9203 113.051C41.7212 114.153 42.959 114.851 44.3061 115.034V128.33C41.794 128.624 39.9373 130.791 39.9009 133.325C39.9009 136.117 42.1217 138.357 44.8885 138.357C46.454 138.357 47.9466 137.622 48.8568 136.337L60.2519 142.985C59.997 143.609 59.8514 144.27 59.8514 144.968C59.8514 147.76 62.0722 150 64.839 150C67.6059 150 69.8266 147.76 69.8266 144.968C69.8266 144.307 69.681 143.609 69.4262 142.985L80.8212 136.337C81.7678 137.586 83.224 138.357 84.8259 138.357C87.5927 138.357 89.8135 136.117 89.8135 133.325C89.8135 130.791 87.9204 128.624 85.4084 128.33V115.034C86.7554 114.851 87.9568 114.153 88.7941 113.051L100.189 119.699C99.9344 120.323 99.7887 120.984 99.7887 121.682C99.7887 124.474 102.009 126.714 104.776 126.714C107.543 126.714 109.764 124.474 109.764 121.682C109.764 121.021 109.618 120.323 109.363 119.699L120.759 113.051C121.705 114.3 123.161 115.071 124.763 115.071C127.53 115.071 129.751 112.831 129.751 110.039C129.751 107.505 127.858 105.338 125.346 105.044V91.7483C127.858 91.4545 129.714 89.2875 129.751 86.7532C129.751 83.9618 127.53 81.7213 124.763 81.7213C123.198 81.7213 121.705 82.4559 120.795 83.7414L109.4 77.0935C109.655 76.4691 109.8 75.808 109.8 75.1102C109.8 74.4491 109.655 73.7512 109.4 73.1268L120.795 66.4789C121.742 67.7277 123.198 68.499 124.8 68.499C127.566 68.499 129.787 66.2586 129.787 63.4672C129.787 60.9329 127.894 58.7659 125.382 58.4721V45.1763C127.894 44.8825 129.751 42.7155 129.787 40.1812C129.787 37.3898 127.566 35.1494 124.8 35.1494C123.234 35.1494 121.742 35.8839 120.831 37.1694L109.436 30.5215C109.691 29.8972 109.837 29.236 109.837 28.5382C109.837 25.7468 107.616 23.5064 104.849 23.5064C102.082 23.5064 99.8615 25.7468 99.8615 28.5382C99.8615 29.1993 100.007 29.8972 100.262 30.5215L88.9398 37.096C88.1388 35.9207 86.8646 35.1494 85.4812 35.0024V21.7067C87.9932 21.4128 89.8499 19.2458 89.8863 16.7116C89.8863 13.9202 87.6656 11.6797 84.8987 11.6797C83.3332 11.6797 81.8406 12.4143 80.9304 13.6998L69.5354 7.05191C69.7902 6.42752 69.9358 5.76641 69.9358 5.06856C69.9723 2.24045 67.7515 0 64.9846 0ZM68.9529 8.08031L80.348 14.7282C80.0931 15.3526 79.9475 16.0137 79.9475 16.7116C79.9475 17.3727 80.0931 18.0705 80.348 18.6949L79.0737 19.4295L68.9893 25.3061C68.0427 24.0573 66.5865 23.286 64.9846 23.286C63.4192 23.286 61.9265 24.0206 61.0164 25.3061L49.6213 18.6582C49.8762 18.0338 50.0218 17.3727 50.0218 16.6748C50.0218 16.0137 49.8762 15.3159 49.6213 14.6915L61.0164 8.04358C61.9629 9.29236 63.4192 10.0637 65.021 10.0637C66.5501 10.0637 68.0427 9.32909 68.9529 8.08031ZM48.966 19.7233L60.3611 26.3712C60.1062 26.9956 59.9606 27.6567 59.9606 28.3546C59.9606 30.8888 61.8537 33.0558 64.3657 33.3497V46.6454C63.0187 46.8291 61.8173 47.5269 60.98 48.6288L49.6213 42.0176C49.8398 41.43 49.949 40.8423 49.949 40.2179C49.949 40.1812 49.949 40.1445 49.949 40.1077C49.949 40.071 49.949 40.071 49.949 40.0343C49.949 37.5 48.0559 35.333 45.5439 35.0392V21.7434C46.9637 21.523 48.1651 20.7884 48.966 19.7233ZM81.0033 19.7233C81.8042 20.8252 83.042 21.523 84.389 21.7067V34.9657C81.877 35.2595 80.0203 37.4265 79.9839 39.9608C79.9839 39.9976 79.9839 40.0343 79.9839 40.071C79.9839 40.1077 79.9839 40.1077 79.9839 40.1445C79.9839 40.7689 80.0931 41.3932 80.3115 41.9442L68.9529 48.5553C68.1519 47.4535 66.9142 46.7556 65.5671 46.572V33.2762C68.0791 32.9824 69.9358 30.8154 69.9723 28.2811C69.9723 27.62 69.8266 26.9221 69.5718 26.2977L81.0033 19.7233ZM28.9791 31.5499L40.3378 38.1611C40.1194 38.7488 40.0101 39.3364 40.0101 39.9608C40.0101 39.9976 40.0101 40.0343 40.0101 40.071C40.0101 40.1077 40.0101 40.1077 40.0101 40.1445C40.0101 40.8056 40.1558 41.5034 40.4106 42.1278L29.0155 48.7757C28.069 47.5269 26.6128 46.7556 25.0473 46.7556C23.4818 46.7556 21.9892 47.4902 21.079 48.7757L9.68399 42.1278C9.93883 41.5034 10.0844 40.8423 10.0844 40.1445C10.0844 39.4833 9.93883 38.7855 9.68399 38.1611L21.079 31.5132C22.0256 32.762 23.4818 33.5333 25.0837 33.5333C26.5763 33.57 28.0326 32.7987 28.9791 31.5499ZM100.99 31.5499C101.937 32.7987 103.393 33.57 104.958 33.57C106.524 33.57 108.016 32.8354 108.927 31.5499L120.322 38.1978C120.067 38.8222 119.921 39.4833 119.921 40.1812C119.921 40.8423 120.067 41.5402 120.322 42.1645L108.927 48.8124C107.98 47.5637 106.524 46.7924 104.922 46.7924C103.357 46.7924 101.864 47.5269 100.954 48.8124L89.5587 42.1645C89.8135 41.5402 89.9591 40.879 89.9591 40.1812C89.9591 40.1445 89.9591 40.1077 89.9591 40.071C89.9591 40.0343 89.9591 40.0343 89.9591 39.9975C89.9591 39.3732 89.8499 38.7488 89.6315 38.1978L100.99 31.5499ZM80.894 43.046C81.695 44.2213 82.9692 44.9926 84.3526 45.1396V58.4721C83.0056 58.6557 81.8042 59.3536 80.9668 60.4554L69.5718 53.8075C69.8266 53.1831 69.9723 52.522 69.9723 51.8242C69.9723 51.7875 69.9723 51.7507 69.9723 51.714C69.9723 51.6773 69.9723 51.6773 69.9723 51.6405C69.9723 50.9794 69.8266 50.2816 69.5718 49.6572L80.894 43.046ZM49.0752 43.046L60.3611 49.6205C60.1062 50.2449 59.9606 50.906 59.9606 51.6038C59.9606 51.6405 59.9606 51.6773 59.9606 51.714C59.9606 51.7507 59.9606 51.7507 59.9606 51.7875C59.9606 52.4486 60.1062 53.1464 60.3611 53.7708L48.966 60.4187C48.1651 59.3168 46.9273 58.619 45.5803 58.4354V45.1396C47.0001 44.9926 48.2743 44.2213 49.0752 43.046ZM8.99227 43.1929L20.3873 49.8408C20.1325 50.4652 19.9869 51.1263 19.9869 51.8242C19.9869 54.3585 21.88 56.5255 24.392 56.8193V70.1151C23.045 70.2987 21.8436 70.9966 21.0062 72.0984L9.61117 65.4505C9.86601 64.8261 10.0116 64.165 10.0116 63.4672C10.0116 60.9329 8.11853 58.7659 5.60651 58.4721V45.1763C6.95354 44.9927 8.19134 44.2948 8.99227 43.1929ZM88.9762 43.1929L100.371 49.8408C100.116 50.4652 99.9708 51.1263 99.9708 51.8242C99.9708 54.3585 101.864 56.5255 104.376 56.8193V70.1151C103.029 70.2987 101.827 70.9966 100.99 72.0984L89.5951 65.4505C89.8499 64.8261 89.9955 64.165 89.9955 63.4672C89.9955 63.357 89.9955 63.2468 89.9955 63.0999C89.8135 60.7125 87.9932 58.7659 85.6268 58.4721V45.1763C86.9374 44.9927 88.1388 44.2948 88.9762 43.1929ZM40.9931 43.1929C41.794 44.2948 43.0318 44.9927 44.3789 45.1763V58.4721C41.8668 58.7659 40.0101 60.9329 39.9737 63.4672C39.9737 64.1283 40.1194 64.8261 40.3742 65.4505L28.9791 72.0617C28.9427 72.025 28.9427 71.9882 28.9063 71.9515C28.1054 70.9231 26.904 70.262 25.5934 70.0784V56.7826C28.1054 56.4887 29.9621 54.3217 29.9985 51.7875C29.9985 51.1263 29.8529 50.4285 29.598 49.8041L40.9931 43.1929ZM120.977 43.1929C121.778 44.2948 123.016 44.9927 124.363 45.1763V58.4721C121.851 58.7659 119.994 60.9329 119.958 63.4672C119.958 64.1283 120.103 64.8261 120.358 65.4505L108.963 72.0617C108.162 70.9598 106.924 70.262 105.577 70.0784V56.7826C108.089 56.4887 109.946 54.3217 109.982 51.7875C109.982 51.1263 109.837 50.4285 109.582 49.8041L115.298 46.4985L120.977 43.1929ZM68.9529 54.8359L80.348 61.4838C80.1659 61.9613 80.0203 62.4388 79.9839 62.953C79.9839 63.1366 79.9475 63.2835 79.9475 63.4672C79.9475 64.1283 80.0931 64.8261 80.348 65.4505L68.9893 72.0617C68.0427 70.8129 66.5865 70.0416 64.9846 70.0416C63.4192 70.0416 61.9265 70.7762 61.0164 72.0617L52.6066 67.1768L49.6213 65.4138C49.8762 64.7894 50.0218 64.1283 50.0218 63.4305C50.0218 63.3203 50.0218 63.2101 50.0218 63.0632C49.9854 62.5122 49.8398 61.9613 49.6213 61.4471L61.0164 54.7992C61.9629 56.048 63.4192 56.8193 65.021 56.8193C66.5501 56.856 68.0427 56.1214 68.9529 54.8359ZM48.966 66.4789L60.3611 73.1268C60.1062 73.7512 59.9606 74.4123 59.9606 75.1102C59.9606 77.6445 61.8537 79.8114 64.3657 80.1053V93.4011C63.0187 93.5847 61.8173 94.2826 60.98 95.3844L49.5849 88.7365C49.8398 88.1121 49.9854 87.451 49.9854 86.7532C49.9854 84.2189 48.0923 82.0519 45.5803 81.7581V68.4623C46.9637 68.2786 48.1651 67.5808 48.966 66.4789ZM88.9762 66.4789L100.371 73.1268C100.189 73.6043 100.044 74.0818 100.007 74.596C100.007 74.7796 99.9708 74.9265 99.9708 75.1102C99.9708 75.7713 100.116 76.4691 100.371 77.0935L88.9762 83.7414C88.9398 83.7047 88.9398 83.668 88.9034 83.6312C88.1024 82.6028 86.901 81.9417 85.5904 81.7581V68.4623C86.9374 68.2786 88.1388 67.5808 88.9762 66.4789ZM40.9931 66.4789C41.794 67.5808 43.0318 68.2786 44.3789 68.4623V81.7581C43.0318 81.9417 41.8304 82.6396 40.9931 83.7414L29.598 77.0935C29.8529 76.4691 29.9985 75.808 29.9985 75.1102C29.9985 74.4491 29.8529 73.7512 29.598 73.1268L40.9931 66.4789ZM81.0033 66.4789C81.8042 67.5808 83.042 68.2786 84.389 68.4623V81.7581C82.059 82.0519 80.2751 83.9251 80.0203 86.239C80.0203 86.4226 79.9839 86.5695 79.9839 86.7532C79.9839 87.4143 80.1295 88.1121 80.3843 88.7365L68.9893 95.3477C68.1884 94.2458 66.9506 93.548 65.6035 93.3643V80.0686C68.1155 79.7747 69.9722 77.6077 70.0087 75.0735C70.0087 74.4123 69.863 73.7145 69.6082 73.0901L81.0033 66.4789ZM28.9791 78.1219L40.3742 84.7698C40.1922 85.2473 40.0466 85.7248 40.0101 86.239C40.0101 86.4226 39.9737 86.5695 39.9737 86.7532C39.9737 87.4143 40.1194 88.1121 40.3742 88.7365L31.6004 93.8418L28.9791 95.3844C28.0326 94.1357 26.5763 93.3643 25.0109 93.3643C23.4454 93.3643 21.9528 94.0989 21.0426 95.3844L9.64758 88.7365C9.90242 88.1121 10.048 87.451 10.048 86.7532C10.048 86.0921 9.90242 85.3942 9.64758 84.7698L21.0426 78.1219C21.9892 79.3707 23.4454 80.142 25.0473 80.142C26.5763 80.142 28.0326 79.4074 28.9791 78.1219ZM108.963 78.1219L120.358 84.7698C120.103 85.3942 119.958 86.0553 119.958 86.7532C119.958 87.4143 120.103 88.1121 120.358 88.7365L120.249 88.81L108.963 95.3844C108.016 94.1357 106.56 93.3643 104.958 93.3643C103.393 93.3643 101.9 94.0989 100.99 95.3844L89.5951 88.7365C89.8499 88.1121 89.9955 87.451 89.9955 86.7532C89.9955 86.643 89.9955 86.5328 89.9955 86.3859C89.9591 85.835 89.8135 85.284 89.5951 84.7698L100.99 78.1219C101.937 79.3707 103.393 80.142 104.958 80.142C106.524 80.142 108.016 79.4074 108.963 78.1219ZM8.99227 89.7649L17.8389 94.907L20.4237 96.4128C20.1689 97.0372 20.0233 97.6983 20.0233 98.3962C20.0233 100.93 21.9164 103.097 24.4284 103.391V116.687C23.0814 116.871 21.88 117.569 21.0426 118.67L9.64758 112.023C9.90242 111.398 10.048 110.737 10.048 110.039C10.048 107.505 8.15493 105.338 5.64292 105.044V91.7483C6.95354 91.5646 8.19134 90.8668 8.99227 89.7649ZM48.966 89.7649L60.3611 96.4128C60.1062 97.0372 59.9606 97.6983 59.9606 98.3962C59.9606 99.0573 60.1062 99.7551 60.3611 100.38L48.966 106.991C48.1651 105.889 46.9273 105.191 45.5803 105.007V91.7115C46.9637 91.5646 48.1651 90.8668 48.966 89.7649ZM88.9762 89.7649L100.371 96.4128C100.116 97.0372 99.9708 97.6983 99.9708 98.3962C99.9708 100.93 101.864 103.097 104.376 103.391V116.687C103.029 116.871 101.827 117.569 100.99 118.67L89.5951 112.023C89.8499 111.398 89.9955 110.737 89.9955 110.039C89.9955 107.505 88.1024 105.338 85.5904 105.044V91.7483C86.9374 91.5646 88.1388 90.8668 88.9762 89.7649ZM40.9931 89.7649C41.794 90.8668 43.0318 91.5646 44.3789 91.7483V105.044C42.0489 105.338 40.265 107.211 40.0101 109.525C40.0101 109.709 39.9737 109.856 39.9737 110.039C39.9737 110.7 40.1194 111.398 40.3742 112.023L28.9791 118.67C28.1782 117.569 26.9404 116.871 25.5934 116.687V103.391C28.1054 103.097 29.9621 100.93 29.9985 98.3962C29.9985 97.7351 29.8529 97.0372 29.598 96.4128L36.9885 92.1156L40.9931 89.7649ZM81.0033 89.7649C81.8042 90.8668 83.042 91.5646 84.389 91.7483V105.044C83.1512 105.191 81.9862 105.815 81.1853 106.807C81.1125 106.881 81.0761 106.954 81.0397 107.027L69.5718 100.343C69.8266 99.7184 69.9723 99.0573 69.9723 98.3594C69.9723 97.6983 69.8266 97.0005 69.5718 96.3761L81.0033 89.7649ZM120.977 89.7649C121.778 90.8668 123.016 91.5646 124.363 91.7483V105.044C121.851 105.338 119.994 107.505 119.958 110.039C119.958 110.7 120.103 111.398 120.358 112.023L108.963 118.67C108.162 117.569 106.924 116.871 105.577 116.687V103.391C108.089 103.097 109.946 100.93 109.982 98.3962C109.982 97.7351 109.837 97.0372 109.582 96.4128L120.977 89.7649ZM68.9529 101.408L80.348 108.056C80.1659 108.533 80.0203 109.011 79.9839 109.525C79.9839 109.709 79.9475 109.856 79.9475 110.039C79.9475 110.7 80.0931 111.398 80.348 112.023L71.5741 117.128L68.9529 118.67C68.0063 117.422 66.5501 116.65 64.9482 116.65C63.3828 116.65 61.8901 117.385 60.98 118.67L49.5849 112.023C49.8398 111.398 49.9854 110.737 49.9854 110.039C49.9854 109.378 49.8398 108.68 49.5849 108.056L60.98 101.408C61.9265 102.657 63.3828 103.428 64.9846 103.428C66.5501 103.428 68.0427 102.693 68.9529 101.408ZM48.966 113.051L60.3611 119.699C60.1062 120.323 59.9606 120.984 59.9606 121.682C59.9606 124.216 61.8537 126.383 64.3657 126.677V139.973C63.0187 140.157 61.8173 140.855 60.98 141.956L49.5849 135.309C49.8398 134.684 49.9854 134.023 49.9854 133.325C49.9854 130.791 48.0923 128.624 45.5803 128.33V115.034C46.9637 114.851 48.1651 114.153 48.966 113.051ZM81.0033 113.051C81.8042 114.153 83.042 114.851 84.389 115.034V128.33C81.877 128.624 80.0203 130.791 79.9839 133.325C79.9839 133.986 80.1295 134.684 80.3843 135.309L68.9893 141.92C68.1884 140.818 66.9506 140.12 65.6035 139.936V126.641C68.1155 126.347 69.9722 124.18 70.0087 121.645C70.0087 120.984 69.863 120.286 69.6082 119.662L81.0033 113.051Z" fill="url(#paint0_linear)"/>
<defs>
<linearGradient id="paint0_linear" x1="6.00179" y1="127.279" x2="131.573" y2="42.2838" gradientUnits="userSpaceOnUse">
<stop stop-color="#333A56"/>
<stop offset="1" stop-color="#5C689B"/>
</linearGradient>
</defs>
</svg>
