<svg width="150" height="145" viewBox="0 0 150 145" fill="none" xmlns="http://www.w3.org/2000/svg">
<path d="M66.9658 0.036435C66.5781 0.036435 66.2257 0.107175 65.8732 0.31939L58.7892 4.42223L51.6699 0.284022C50.7183 -0.281887 49.52 0.0718053 48.9561 1.02678C48.3922 1.98175 48.7446 3.1843 49.6962 3.75021L56.8155 7.88842V24.3705L42.5769 32.6115L28.3384 24.3705V16.1295C28.3384 15.033 27.4925 14.1134 26.4 14.1134C26.3647 14.1134 26.3647 14.1134 26.3295 14.1134C25.2369 14.1134 24.3558 15.033 24.391 16.1295V24.3705L17.2718 28.5087C16.3202 29.0393 15.9677 30.2418 16.4964 31.1968C17.0251 32.1517 18.2234 32.5054 19.1749 31.9749C19.2102 31.9749 19.2102 31.9395 19.2454 31.9395L26.3647 27.8013L40.6033 36.0424V52.5245L33.484 56.6627L26.3647 60.8009L12.1261 52.5598V44.3188C12.1261 43.2223 11.2803 42.3027 10.1877 42.3027C10.1525 42.3027 10.1525 42.3027 10.1172 42.3027C9.02467 42.3027 8.14357 43.2223 8.17882 44.3188V52.5598L1.05953 56.698C0.107945 57.2286 -0.244494 58.4311 0.284166 59.3861C0.812826 60.3411 2.01112 60.6948 2.96271 60.1642C2.99795 60.1642 2.99795 60.1289 3.0332 60.1289L10.1525 55.9907L24.391 64.2317V80.7138L10.1525 88.9548L2.99795 84.8874C2.716 84.7105 2.3988 84.6044 2.04637 84.6044C0.953802 84.569 0.037457 85.4179 0.00221305 86.5144C-0.0330309 87.2571 0.354653 87.9645 1.02429 88.3182L8.14357 92.4564V100.697C8.14357 101.794 8.98943 102.713 10.082 102.713C11.1746 102.713 12.0909 101.865 12.0909 100.768C12.0909 100.733 12.0909 100.733 12.0909 100.697V92.4564L26.3295 84.2153L40.568 92.4564V108.938L26.3647 117.18L19.2454 113.041C18.9635 112.864 18.6463 112.758 18.2938 112.758C17.2013 112.723 16.2849 113.572 16.2497 114.668C16.2144 115.411 16.6021 116.118 17.2718 116.472L24.391 120.61V128.851C24.391 129.948 25.2369 130.867 26.3295 130.867C27.422 130.867 28.3384 130.019 28.3384 128.922C28.3384 128.887 28.3384 128.887 28.3384 128.851V120.61L42.5769 112.369L56.8155 120.61V137.092L49.6962 141.231C48.7446 141.761 48.3922 142.964 48.9209 143.919C49.4495 144.874 50.6478 145.227 51.5994 144.697C51.6347 144.697 51.6347 144.661 51.6699 144.661L58.7892 140.523L65.9085 144.661C66.8601 145.227 68.0583 144.909 68.6222 143.989C69.1861 143.034 68.869 141.832 67.9526 141.266C67.9174 141.266 67.9174 141.231 67.8821 141.231L60.7628 137.092V120.61L67.8821 116.472L75.0014 112.334L89.24 120.575V137.057L82.1207 141.195C81.1691 141.726 80.8167 142.928 81.3453 143.883C81.874 144.838 83.0723 145.192 84.0239 144.661C84.0591 144.661 84.0591 144.626 84.0944 144.626L91.2136 140.488L98.3329 144.626C99.2845 145.192 100.483 144.874 101.047 143.954C101.611 142.999 101.293 141.797 100.377 141.231C100.342 141.231 100.342 141.195 100.307 141.195L93.1873 137.057V120.575L107.426 112.334L121.664 120.575V128.816C121.664 129.912 122.51 130.832 123.603 130.832C124.695 130.832 125.612 129.983 125.612 128.887C125.612 128.851 125.612 128.851 125.612 128.816V120.575L132.731 116.437C133.683 115.906 134.035 114.704 133.506 113.713C133.154 113.112 132.52 112.723 131.85 112.688C131.462 112.688 131.11 112.758 130.757 112.971L123.638 117.18L109.435 108.938V92.4564L116.554 88.3182L123.673 84.18L137.912 92.421V100.662C137.912 101.759 138.758 102.678 139.85 102.678C140.943 102.678 141.859 101.829 141.859 100.733C141.859 100.697 141.859 100.697 141.859 100.662V92.421L148.979 88.2828C149.93 87.7523 150.283 86.5497 149.754 85.5594C149.401 84.9581 148.767 84.569 148.097 84.5337C147.71 84.5337 147.357 84.6044 147.005 84.8166L139.886 88.9548L125.647 80.7138V64.2317L139.886 55.9907L147.005 60.1289C147.956 60.6948 149.155 60.3764 149.719 59.4568C150.283 58.5019 149.965 57.2993 149.049 56.7334C149.014 56.7334 149.014 56.698 148.979 56.698L141.859 52.5598V44.3188C141.859 43.2223 141.013 42.3027 139.921 42.3027C139.886 42.3027 139.886 42.3027 139.85 42.3027C138.758 42.3027 137.877 43.2223 137.912 44.3188V52.5598L123.638 60.8009L109.4 52.5598V36.0777L123.638 27.8367L130.757 31.9749C131.709 32.5408 132.907 32.2225 133.471 31.3029C134.035 30.3479 133.718 29.1454 132.802 28.5795C132.766 28.5795 132.766 28.5441 132.731 28.5441L125.612 24.4059V16.1648C125.612 15.0684 124.766 14.1488 123.673 14.1488C123.638 14.1488 123.638 14.1488 123.603 14.1488C122.51 14.1488 121.629 15.0684 121.664 16.1648V24.4059L107.426 32.6115L93.1873 24.3705V7.88842L100.307 3.75021C101.258 3.21967 101.611 2.01712 101.082 1.02678C100.73 0.425498 100.095 0.0364355 99.4255 0.00106623C99.0378 0.00106623 98.6854 0.0718059 98.3329 0.284022L91.2136 4.42223L84.0944 0.284022C83.8124 0.107175 83.4952 0.00106623 83.1428 0.00106623C82.0502 -0.0343031 81.1339 0.81456 81.0986 1.91101C81.0634 2.65376 81.4511 3.36115 82.1207 3.71484L89.24 7.85305V24.3351L82.1207 28.4733L75.0014 32.6115L60.7628 24.3705V7.88842L67.8821 3.75021C68.8337 3.21967 69.1862 2.01712 68.6575 1.02678C68.3051 0.425498 67.6707 0.036435 66.9658 0.036435ZM58.7892 27.8367L73.0277 36.0777V52.5598L65.9085 56.698L58.7892 60.8009L44.5506 52.5598V36.0777L58.7892 27.8367ZM91.2136 27.8367L105.452 36.0777V52.5598L98.3329 56.698L91.2136 60.8009L76.9751 52.5598V36.0777L91.2136 27.8367ZM42.5769 56.026L56.8155 64.2671V80.7492L42.5769 88.9902L28.3384 80.7492V64.2671L42.5769 56.026ZM75.0014 56.026L89.24 64.2671V80.7492L75.0014 88.9902L60.7628 80.7492V64.2671L75.0014 56.026ZM107.426 56.026L121.664 64.2671V80.7492L107.426 88.9902L93.1873 80.7492V64.2671L107.426 56.026ZM58.7892 84.2153L73.0277 92.4564V108.938L58.7892 117.18L44.5506 108.938V92.4564L58.7892 84.2153ZM91.2136 84.2153L105.452 92.4564V108.938L91.2136 117.18L76.9751 108.938V92.4564L91.2136 84.2153Z" fill="url(#paint0_linear)"/>
<defs>
<linearGradient id="paint0_linear" x1="6.93649" y1="122.989" x2="134.771" y2="19.4977" gradientUnits="userSpaceOnUse">
<stop stop-color="#333A56"/>
<stop offset="1" stop-color="#5C689B"/>
</linearGradient>
</defs>
</svg>
