<svg width="149" height="150" viewBox="0 0 149 150" fill="none" xmlns="http://www.w3.org/2000/svg">
<path d="M56.8764 0.0373694C54.0046 0.0373694 51.6922 2.35485 51.6922 5.23299C51.6922 7.28881 52.8857 9.12036 54.7505 9.98007V20.4834C52.8857 21.3058 51.6922 23.1747 51.6922 25.1931C51.6922 25.38 51.6922 25.5669 51.7295 25.7164L42.6666 30.9494C41.7715 30.314 40.7272 29.9776 39.6456 29.9402C38.5641 29.9402 37.4825 30.2766 36.6247 30.9494L27.5617 25.7164C27.599 25.5295 27.599 25.3426 27.599 25.1931C27.599 22.315 25.2867 19.9975 22.4149 19.9975C19.5431 19.9975 17.2307 22.315 17.2307 25.1931C17.2307 28.0713 19.5431 30.3887 22.4149 30.3887C23.4965 30.3887 24.5781 30.0523 25.4359 29.3795L34.4988 34.6125C34.4615 34.7994 34.4615 34.9863 34.4615 35.1358C34.4615 37.1916 35.655 39.0232 37.5198 39.8829V50.3862C35.655 51.2086 34.4615 53.0775 34.4615 55.0959C34.4615 55.2828 34.4615 55.4697 34.4988 55.6192L33.2307 56.3668L25.4359 60.8896C24.5408 60.2542 23.4965 59.9178 22.4149 59.8804C21.3333 59.8804 20.2517 60.2168 19.3939 60.8896L10.331 55.6566C10.3683 55.4697 10.3683 55.2828 10.3683 55.1333C10.3683 52.2552 8.05593 49.9377 5.18414 49.9377C2.31235 49.9377 0 52.2552 0 55.1333C0 58.0115 2.31235 60.3289 5.18414 60.3289C6.26572 60.3289 7.34731 59.9925 8.20512 59.3197L17.268 64.5527C17.2308 64.7396 17.2307 64.9265 17.2307 65.076C17.2307 67.1318 18.4242 68.9634 20.289 69.8231V80.3264C18.4242 81.1488 17.2307 83.0177 17.2307 85.0361C17.2307 85.223 17.2308 85.4099 17.268 85.5594L8.20512 90.7924C7.31001 90.157 6.26572 89.8206 5.18414 89.7832C2.31235 89.7832 0 92.1007 0 94.9788C0 97.857 2.31235 100.174 5.18414 100.174C8.05593 100.174 10.3683 97.857 10.3683 94.9788C10.3683 94.7919 10.3683 94.605 10.331 94.4555L19.3939 89.2225C20.289 89.858 21.3333 90.1944 22.4149 90.2317C23.4965 90.2317 24.5781 89.8953 25.4359 89.2225L34.4988 94.4555C34.4615 94.6424 34.4615 94.8293 34.4615 94.9788C34.4615 97.0346 35.655 98.8662 37.5198 99.7259V110.229C35.655 111.052 34.4615 112.921 34.4615 114.939C34.4615 115.126 34.4615 115.313 34.4988 115.462L25.4359 120.695C24.5408 120.06 23.4965 119.723 22.4149 119.686C19.5431 119.686 17.2307 122.003 17.2307 124.882C17.2307 127.76 19.5431 130.077 22.4149 130.077C25.2867 130.077 27.599 127.76 27.599 124.882C27.599 124.695 27.599 124.508 27.5617 124.358L36.6247 119.125C37.5198 119.761 38.5641 120.097 39.6456 120.097C40.7272 120.097 41.8088 119.761 42.6666 119.088L51.7295 124.321C51.6922 124.508 51.6922 124.695 51.6922 124.844C51.6922 126.9 52.8857 128.732 54.7505 129.591V140.095C52.8857 140.917 51.6922 142.786 51.6922 144.804C51.6922 147.683 54.0046 150 56.8764 150C59.7482 150 62.0605 147.683 62.0605 144.804C62.0605 142.749 60.8671 140.917 59.0023 140.057V129.554C60.8671 128.732 62.0605 126.863 62.0605 124.844C62.0605 124.657 62.0605 124.47 62.0232 124.321L62.3589 124.134L71.0862 119.088C71.9813 119.723 73.0256 120.06 74.1071 120.06C75.1887 120.06 76.2703 119.723 77.1281 119.051L86.191 124.284C86.1537 124.47 86.1537 124.657 86.1537 124.807C86.1537 126.863 87.3472 128.694 89.212 129.554V140.057C87.3472 140.88 86.1537 142.749 86.1537 144.767C86.1537 147.645 88.4661 149.963 91.3379 149.963C94.2097 149.963 96.522 147.645 96.522 144.767C96.522 142.711 95.3286 140.88 93.4638 140.02V129.517C95.3286 128.694 96.522 126.825 96.522 124.807C96.522 124.62 96.522 124.433 96.4847 124.284L105.548 119.051C106.443 119.686 107.487 120.022 108.569 120.06C109.65 120.06 110.732 119.723 111.59 119.051L120.653 124.284C120.615 124.47 120.615 124.657 120.615 124.807C120.615 127.685 122.928 130.002 125.799 130.002C128.671 130.002 130.984 127.685 130.984 124.807C130.984 121.929 128.671 119.611 125.799 119.611C124.718 119.611 123.636 119.948 122.778 120.62L113.715 115.387C113.753 115.201 113.753 115.014 113.753 114.864C113.753 112.808 112.559 110.977 110.695 110.117V99.6138C112.559 98.7914 113.753 96.9225 113.753 94.904C113.753 94.7172 113.753 94.5303 113.715 94.3808L122.778 89.1478C123.674 89.7832 124.718 90.1196 125.799 90.157C126.881 90.157 127.963 89.8206 128.82 89.1478L137.883 94.3808C137.846 94.5677 137.846 94.7545 137.846 94.904C137.846 97.7822 140.158 100.1 143.03 100.1C145.902 100.1 148.214 97.7822 148.214 94.904C148.214 92.0259 145.902 89.7085 143.03 89.7085C141.949 89.7085 140.867 90.0449 140.009 90.7177L130.946 85.4847C130.984 85.2978 130.984 85.1109 130.984 84.9614C130.984 82.9056 129.79 81.074 127.925 80.2143V69.7109C129.79 68.8886 130.984 67.0197 130.984 65.0012C130.984 64.8143 130.984 64.6275 130.946 64.4779L140.009 59.245C140.904 59.8804 141.949 60.2168 143.03 60.2542C145.902 60.2542 148.214 57.9367 148.214 55.0586C148.214 52.1804 145.902 49.8629 143.03 49.8629C140.158 49.8629 137.846 52.1804 137.846 55.0586C137.846 55.2454 137.846 55.4324 137.883 55.5819L128.82 60.8149C127.925 60.1794 126.881 59.843 125.799 59.8056C124.718 59.8056 123.636 60.142 122.778 60.8149L113.715 55.5819C113.753 55.395 113.753 55.2081 113.753 55.0586C113.753 53.0027 112.559 51.1712 110.695 50.3115V39.8081C112.559 38.9858 113.753 37.1169 113.753 35.0984C113.753 34.9115 113.753 34.7246 113.715 34.5751L122.778 29.3421C123.674 29.9776 124.718 30.314 125.799 30.3514C128.671 30.3514 130.984 28.0339 130.984 25.1557C130.984 22.2776 128.671 19.9601 125.799 19.9601C122.928 19.9601 120.615 22.2776 120.615 25.1557C120.615 25.3426 120.615 25.5295 120.653 25.679L111.59 30.912C110.695 30.2766 109.65 29.9402 108.569 29.9028C107.487 29.9028 106.405 30.2392 105.548 30.912L96.4847 25.679C96.522 25.4922 96.522 25.3053 96.522 25.1557C96.522 23.0999 95.3286 21.2684 93.4638 20.4087V9.90531C95.3286 9.08298 96.522 7.21404 96.522 5.1956C96.522 2.31745 94.2097 0 91.3379 0C88.4661 0 86.1537 2.31745 86.1537 5.1956C86.1537 7.25142 87.3472 9.08297 89.212 9.94268V20.4461C87.3472 21.2684 86.1537 23.1373 86.1537 25.1557C86.1537 25.3426 86.1537 25.5295 86.191 25.679L77.1281 30.912C76.233 30.2766 75.1887 29.9402 74.1071 29.9028C73.0256 29.9028 71.944 30.2392 71.0862 30.912L62.0232 25.679C62.0605 25.4922 62.0605 25.3053 62.0605 25.1557C62.0605 23.0999 60.8671 21.2684 59.0023 20.4087V9.90531C60.8671 9.08298 62.0605 7.21404 62.0605 5.1956C62.0232 2.39221 59.7109 0.0373694 56.8764 0.0373694ZM59.8974 29.3795L68.9603 34.6125C68.923 34.7994 68.923 34.9863 68.923 35.1358C68.923 37.1916 70.1165 39.0232 71.9813 39.8829V50.3862C70.1165 51.2086 68.923 53.0775 68.923 55.0959C68.923 55.2828 68.923 55.4697 68.9603 55.6192L59.8974 60.8522C59.0023 60.2168 57.958 59.8804 56.8764 59.843C55.7948 59.843 54.7132 60.1794 53.8554 60.8522L44.7925 55.6192C44.8298 55.4323 44.8298 55.2454 44.8298 55.0959C44.8298 53.0401 43.6363 51.2086 41.7715 50.3489V39.8455C43.6363 39.0232 44.8298 37.1542 44.8298 35.1358C44.8298 34.9489 44.8298 34.762 44.7925 34.6125L53.8554 29.3795C54.7505 30.0149 55.7948 30.3514 56.8764 30.3887C57.958 30.3514 59.0023 30.0149 59.8974 29.3795ZM94.3962 29.3795L103.459 34.6125C103.422 34.7994 103.422 34.9863 103.422 35.1358C103.422 37.1916 104.615 39.0232 106.48 39.8829V50.3862C104.615 51.2086 103.422 53.0775 103.422 55.0959C103.422 55.2828 103.422 55.4697 103.459 55.6192L94.3962 60.8522C93.5011 60.2168 92.4568 59.8804 91.3752 59.843C90.2936 59.843 89.212 60.1794 88.3542 60.8522L79.2913 55.6192C79.3286 55.4323 79.3286 55.2454 79.3286 55.0959C79.3286 53.0401 78.1351 51.2086 76.2703 50.3489V39.8455C78.1351 39.0232 79.3286 37.1542 79.3286 35.1358C79.3286 34.9489 79.3286 34.762 79.2913 34.6125L88.3542 29.3795C89.2493 30.0149 90.2936 30.3514 91.3752 30.3887C92.4195 30.3514 93.5011 30.0149 94.3962 29.3795ZM42.6666 59.3197L51.7295 64.5527C51.6922 64.7396 51.6922 64.9265 51.6922 65.076C51.6922 67.1318 52.8857 68.9634 54.7505 69.8231V80.3264C52.8857 81.1488 51.6922 83.0177 51.6922 85.0361C51.6922 85.223 51.6922 85.4099 51.7295 85.5594L42.6666 90.7924C41.7715 90.157 40.7272 89.8206 39.6456 89.7832C38.5641 89.7832 37.4825 90.1196 36.6247 90.7924L27.5617 85.5594C27.599 85.3725 27.599 85.1856 27.599 85.0361C27.599 82.9803 26.4056 81.1488 24.5408 80.2891V69.7857C26.4056 68.9634 27.599 67.0944 27.599 65.076C27.599 64.8891 27.599 64.7022 27.5617 64.5527L36.6247 59.3197C37.5198 59.9552 38.5641 60.2915 39.6456 60.3289C40.7272 60.2915 41.7715 59.9552 42.6666 59.3197ZM77.1281 59.3197L86.191 64.5527C86.1537 64.7396 86.1537 64.9265 86.1537 65.076C86.1537 67.1318 87.3472 68.9634 89.212 69.8231V80.3264C87.3472 81.1488 86.1537 83.0177 86.1537 85.0361C86.1537 85.223 86.1537 85.4099 86.191 85.5594L77.1281 90.7924C76.233 90.157 75.1887 89.8206 74.1071 89.7832C73.0256 89.7832 71.944 90.1196 71.0862 90.7924L62.0232 85.5594C62.0605 85.3725 62.0605 85.1856 62.0605 85.0361C62.0605 82.9803 60.8671 81.1488 59.0023 80.2891V69.7857C60.8671 68.9634 62.0605 67.0944 62.0605 65.076C62.0605 64.8891 62.0605 64.7022 62.0232 64.5527L71.0862 59.3197C71.9813 59.9552 73.0256 60.2915 74.1071 60.3289C75.1887 60.2915 76.2703 59.9552 77.1281 59.3197ZM105.548 59.3197C106.443 59.9552 107.487 60.2915 108.569 60.3289C109.65 60.3289 110.732 59.9925 111.59 59.3197L120.653 64.5527C120.615 64.7396 120.615 64.9265 120.615 65.076C120.615 67.1318 121.809 68.9634 123.674 69.8231V80.3264C121.809 81.1488 120.615 83.0177 120.615 85.0361C120.615 85.223 120.615 85.4099 120.653 85.5594L111.59 90.7924C110.695 90.157 109.65 89.8206 108.569 89.7832C107.487 89.7832 106.405 90.1196 105.548 90.7924L96.4847 85.5594C96.522 85.3725 96.522 85.1856 96.522 85.0361C96.522 82.9803 95.3286 81.1488 93.4638 80.2891V69.7857C95.3286 68.9634 96.522 67.0944 96.522 65.076C96.522 64.8891 96.522 64.7022 96.4847 64.5527L101.035 61.9362L105.548 59.3197ZM59.8974 89.2225L68.9603 94.4555C68.923 94.6424 68.923 94.8293 68.923 94.9788C68.923 97.0346 70.1165 98.8662 71.9813 99.7259V110.229C70.1165 111.052 68.923 112.921 68.923 114.939C68.923 115.126 68.923 115.313 68.9603 115.462L59.8974 120.695C59.0023 120.06 57.958 119.723 56.8764 119.686C55.7948 119.686 54.7132 120.022 53.8554 120.695L44.7925 115.462C44.8298 115.275 44.8298 115.088 44.8298 114.939C44.8298 112.883 43.6363 111.052 41.7715 110.192V99.6885C43.6363 98.8662 44.8298 96.9973 44.8298 94.9788C44.8298 94.7919 44.8298 94.605 44.7925 94.4555L53.8554 89.2225C54.7505 89.858 55.7948 90.1944 56.8764 90.2317C57.958 90.2317 59.0023 89.858 59.8974 89.2225ZM94.3589 89.2225L103.422 94.4555C103.384 94.6424 103.384 94.8293 103.384 94.9788C103.384 97.0346 104.578 98.8662 106.443 99.6885V110.192C104.578 111.014 103.384 112.883 103.384 114.902C103.384 115.088 103.384 115.275 103.422 115.425L94.3589 120.658C93.4638 120.022 92.4195 119.686 91.3379 119.649C90.2563 119.649 89.1747 119.985 88.3169 120.658L79.254 115.425C79.2913 115.238 79.2913 115.051 79.2913 114.902C79.2913 112.846 78.0978 111.014 76.233 110.155V99.6511C78.0978 98.8288 79.2913 96.9599 79.2913 94.9414C79.2913 94.7545 79.2913 94.5676 79.254 94.4181L88.3169 89.1851C89.212 89.8206 90.2563 90.157 91.3379 90.1944C92.4195 90.2317 93.5011 89.858 94.3589 89.2225Z" fill="url(#paint0_linear)"/>
<defs>
<linearGradient id="paint0_linear" x1="6.85392" y1="127.279" x2="137.746" y2="26.1031" gradientUnits="userSpaceOnUse">
<stop stop-color="#333A56"/>
<stop offset="1" stop-color="#5C689B"/>
</linearGradient>
</defs>
</svg>
