<svg width="18" height="18" viewBox="0 0 18 18" fill="none" xmlns="http://www.w3.org/2000/svg">
<path d="M13.091 5.72727C13.091 5.27539 12.7246 4.90909 12.2728 4.90909C11.821 4.90909 11.4546 5.27539 11.4546 5.72727V5.72948C10.7704 5.21468 9.92029 4.90909 9.00008 4.90909C6.74435 4.90909 4.90917 6.74427 4.90917 9C4.90917 11.2557 6.74435 13.0909 9.00008 13.0909C10.2128 13.0909 11.3034 12.56 12.0532 11.719C12.6945 12.6139 13.7572 13.1242 14.7694 13.1242C15.6638 13.1242 16.4753 12.7486 17.0543 12.0664C17.6819 11.3272 18 10.2954 18 9C18 4.0374 13.9626 0 9 0C4.0374 0 0 4.0374 0 9C0 13.9626 4.0374 18 9 18C11.4039 18 13.664 17.0638 15.3641 15.364C15.6836 15.0445 15.6836 14.5264 15.3641 14.2069C15.0446 13.8874 14.5267 13.8873 14.2069 14.2069C12.816 15.5977 10.9668 16.3636 9 16.3636C4.93969 16.3636 1.63636 13.0603 1.63636 9C1.63636 4.93969 4.93969 1.63636 9 1.63636C13.0602 1.63636 16.3636 4.93969 16.3636 9C16.3636 9.88413 16.171 10.5783 15.8067 11.0075C15.4697 11.4046 15.0565 11.4879 14.7693 11.4879C13.9622 11.4879 13.0909 10.8496 13.0909 9.81826V5.72727H13.091ZM9.00008 11.4545C7.64665 11.4545 6.54554 10.3534 6.54554 9C6.54554 7.64656 7.64665 6.54545 9.00008 6.54545C10.3535 6.54545 11.4546 7.64656 11.4546 9C11.4546 10.3534 10.3535 11.4545 9.00008 11.4545Z" fill="#A2B7CD"/>
</svg>
