<svg width="18" height="18" viewBox="0 0 18 18" fill="none" xmlns="http://www.w3.org/2000/svg">
<path d="M12.7969 6.04662C13.4182 6.04662 13.9219 5.54294 13.9219 4.92163C13.9219 4.30031 13.4182 3.79663 12.7969 3.79663C12.1756 3.79663 11.6719 4.30031 11.6719 4.92163C11.6719 5.54294 12.1756 6.04662 12.7969 6.04662Z" fill="#A2B7CD"/>
<path d="M17.8058 5.83135C17.4303 4.87531 16.7418 3.49589 15.594 2.35346C14.4501 1.21496 13.0854 0.546151 12.1418 0.18552C11.106 -0.210373 9.92893 0.039165 9.14319 0.821213L6.3821 3.56937C5.56363 4.38397 5.32773 5.63742 5.79506 6.68842C5.93998 7.01438 6.09758 7.33321 6.26598 7.64125L0.205944 13.7013C0.0740739 13.8331 0 14.012 0 14.1985V17.2922C0 17.6805 0.314788 17.9953 0.703122 17.9953H3.79686C4.18519 17.9953 4.49998 17.6805 4.49998 17.2922V16.0266L5.7656 16.0265C6.15394 16.0265 6.46872 15.7118 6.46872 15.3234V14.0578H7.73434C8.12268 14.0578 8.43747 13.7431 8.43747 13.3547C8.43747 12.9664 8.12268 12.6516 7.73434 12.6516H5.7656C5.37727 12.6516 5.06248 12.9664 5.06248 13.3547V14.6203L3.79686 14.6203C3.40853 14.6203 3.09374 14.9351 3.09374 15.3235V16.5891H1.40624V14.4897L7.64136 8.25462C7.87043 8.02554 7.91336 7.66966 7.74535 7.3927C7.50168 6.99108 7.27784 6.56189 7.08009 6.11706C6.84809 5.59531 6.96629 4.97202 7.37421 4.56601L10.1353 1.81789C10.5295 1.42558 11.12 1.30046 11.6399 1.49909C12.4563 1.81114 13.6329 2.38552 14.602 3.35013C15.577 4.32058 16.1707 5.51459 16.4969 6.34533C16.7005 6.86381 16.5768 7.45285 16.1817 7.84604L13.3873 10.6274C12.9804 11.0323 12.373 11.1507 11.8399 10.929C11.4002 10.7461 10.9743 10.5289 10.5743 10.2833C10.2433 10.0802 9.81035 10.1838 9.60722 10.5148C9.40408 10.8457 9.50769 11.2787 9.83865 11.4818C10.301 11.7656 10.7926 12.0165 11.2998 12.2274C12.3595 12.6682 13.5683 12.4313 14.3793 11.6241L17.1737 8.84278C17.9663 8.05391 18.2144 6.87186 17.8058 5.83135Z" fill="#A2B7CD"/>
</svg>
