<svg width="75" height="89" viewBox="0 0 75 89" fill="none" xmlns="http://www.w3.org/2000/svg">
<path d="M60.4774 18.663L59.4774 2C56.9569 2 52.05 2 52.05 2L50.4991 8.66301C50.4991 8.66301 45.4429 8.66301 42.9148 8.66301C42.9148 8.66301 42.4417 8.66301 42.4417 8.1589C42.4417 6.10593 42.4417 4.05297 42.4417 2H37.7891H33.1321C33.1321 4.05297 33.1321 6.10593 33.1321 8.1589C33.1321 8.66301 32.7251 8.66301 32.7251 8.66301C30.2617 8.66301 25.3349 8.66301 25.3349 8.66301L23.5623 2C23.5623 2 18.6555 2 16.1349 2L15.1349 18.663M60.4774 18.663L68.6007 67.5834C68.6007 67.5834 73.6007 71 73.6007 73C73.6007 75 73.6007 78.2875 73.6007 78.2875L37.7891 87L2.01172 78.2875C2.01172 78.2875 2.01172 75 2.01172 73C2.01172 71 7.01172 67.5834 7.01172 67.5834L15.1349 18.663M60.4774 18.663L42.9148 21M15.1349 18.663L32.7251 21M22.4998 59.5L37.7891 63L52.4998 59.5M21.9998 47L37.7891 50L52.9998 47M21.5457 34L37.7891 37L54.0671 34" stroke="#343A56" stroke-width="2.3"/>
</svg>
