<svg width="75" height="89" viewBox="0 0 75 89" fill="none" xmlns="http://www.w3.org/2000/svg">
<path d="M6.01172 68.5834C6.01172 68.5834 2.01172 71 2.01172 73C2.01172 75 2.01172 78.2875 2.01172 78.2875L37.7891 87L73.6007 78.2875C73.6007 78.2875 73.6007 75 73.6007 73C73.6007 71 69.6007 68.5834 69.6007 68.5834M6.01172 68.5834L37.7891 76L69.6007 68.5834M6.01172 68.5834L7 65L15.1349 18.663M69.6007 68.5834L68.5 65L60.4774 18.663M60.4774 18.663L59.4774 2C56.9569 2 52.05 2 52.05 2L50.4991 8.66301C50.4991 8.66301 45.4429 8.66301 42.9148 8.66301C42.9148 8.66301 42.4417 8.66301 42.4417 8.1589C42.4417 6.10593 42.4417 4.05297 42.4417 2H37.7891H33.1321C33.1321 4.05297 33.1321 6.10593 33.1321 8.1589C33.1321 8.66301 32.7251 8.66301 32.7251 8.66301C30.2617 8.66301 25.3349 8.66301 25.3349 8.66301L23.5623 2C23.5623 2 18.6555 2 16.1349 2L15.1349 18.663M60.4774 18.663L37.7891 22.5L15.1349 18.663M18.4998 55.5L37.7891 60L56.4998 55.5M19.9998 45L37.7891 49L54.9998 45M21.5457 35L37.7891 38L54.0671 35" stroke="#343A56" stroke-width="2.3"/>
</svg>
