<svg width="86" height="81" viewBox="0 0 86 81" fill="none" xmlns="http://www.w3.org/2000/svg">
<path d="M40.7652 72.1214C40.7652 76.3265 32.0922 79.7431 21.448 79.7431C10.8039 79.7431 2.13086 76.3265 2.13086 72.1214" stroke="#343A56" stroke-width="2.3" stroke-miterlimit="10"/>
<path d="M40.7652 63.0541C40.7652 67.2592 32.0922 70.6759 21.448 70.6759C10.8039 70.6759 2.13086 67.2592 2.13086 63.0541" stroke="#343A56" stroke-width="2.3" stroke-miterlimit="10"/>
<path d="M40.7652 54.1183C40.7652 58.3234 32.0922 61.74 21.448 61.74C10.8039 61.74 2.13086 58.3234 2.13086 54.1183" stroke="#343A56" stroke-width="2.3" stroke-miterlimit="10"/>
<path fill-rule="evenodd" clip-rule="evenodd" d="M21.3172 38.1376C31.9613 38.1376 40.6344 41.5542 40.6344 45.7593C40.6344 49.9644 31.9613 53.3811 21.3172 53.3811C10.673 53.3811 2 49.9644 2 45.7593C2 41.5542 10.673 38.1376 21.3172 38.1376Z" stroke="#343A56" stroke-width="2.3" stroke-miterlimit="10"/>
<path d="M83.9996 72.1214C83.9996 76.3265 75.3266 79.7431 64.6824 79.7431C54.0383 79.7431 45.3652 76.3265 45.3652 72.1214" stroke="#343A56" stroke-width="2.3" stroke-miterlimit="10"/>
<path d="M83.9992 63.0541C83.9992 67.2592 75.3262 70.6759 64.682 70.6759C53.9064 70.8073 45.2334 67.3906 45.2334 63.0541" stroke="#343A56" stroke-width="2.3" stroke-miterlimit="10"/>
<path d="M83.9992 54.1183C83.9992 58.3234 75.3262 61.74 64.682 61.74C53.9064 61.74 45.2334 58.3234 45.2334 54.1183" stroke="#343A56" stroke-width="2.3" stroke-miterlimit="10"/>
<path d="M83.9996 45.051C83.9996 49.2561 75.3266 52.6728 64.6824 52.6728C54.0383 52.6728 45.3652 49.2561 45.3652 45.051" stroke="#343A56" stroke-width="2.3" stroke-miterlimit="10"/>
<path d="M83.9996 35.9838C83.9996 40.1889 75.3266 43.6055 64.6824 43.6055C54.0383 43.6055 45.3652 40.1889 45.3652 35.9838" stroke="#343A56" stroke-width="2.3" stroke-miterlimit="10"/>
<path d="M83.9996 27.0479C83.9996 31.253 75.3266 34.6697 64.6824 34.6697C54.0383 34.6697 45.3652 31.253 45.3652 27.0479" stroke="#343A56" stroke-width="2.3" stroke-miterlimit="10"/>
<path d="M83.9996 17.9807C83.9996 22.1858 75.3266 25.6024 64.6824 25.6024C54.0383 25.6024 45.3652 22.1858 45.3652 17.9807" stroke="#343A56" stroke-width="2.3" stroke-miterlimit="10"/>
<path fill-rule="evenodd" clip-rule="evenodd" d="M64.6824 2C75.3266 2 83.9996 5.41665 83.9996 9.62175C83.9996 13.8269 75.3266 17.2435 64.6824 17.2435C54.0383 17.2435 45.3652 13.8269 45.3652 9.62175C45.3652 5.54806 54.0383 2 64.6824 2Z" stroke="#343A56" stroke-width="2.3" stroke-miterlimit="10"/>
</svg>
